name D:\school\WTK\thesis\model\3dpredictsim\Results\PredSim_adaptations\Pog_s1_tmt_unlocked_d05_k800_exo_no.mot
datacolumns 128
datarows 4
range 1.61257264 1.64482409
endheader
time	pelvis_tilt	pelvis_list	pelvis_rotation	pelvis_tx	pelvis_ty	pelvis_tz	hip_flexion_l	hip_adduction_l	hip_rotation_l	hip_flexion_r	hip_adduction_r	hip_rotation_r	knee_angle_l	knee_angle_r	ankle_angle_l	ankle_angle_r	subtalar_angle_l	subtalar_angle_r	tmt_angle_l	tmt_angle_r	mtp_angle_l	mtp_angle_r	lumbar_extension	lumbar_bending	lumbar_rotation	arm_flex_l	arm_add_l	arm_rot_l	arm_flex_r	arm_add_r	arm_rot_r	elbow_flex_l	elbow_flex_r	pro_sup_l	pro_sup_r	glut_med1_l/activation	glut_med2_l/activation	glut_med3_l/activation	glut_min1_l/activation	glut_min2_l/activation	glut_min3_l/activation	semimem_l/activation	semiten_l/activation	bifemlh_l/activation	bifemsh_l/activation	sar_l/activation	add_long_l/activation	add_brev_l/activation	add_mag1_l/activation	add_mag2_l/activation	add_mag3_l/activation	tfl_l/activation	pect_l/activation	grac_l/activation	glut_max1_l/activation	glut_max2_l/activation	glut_max3_l/activation	iliacus_l/activation	psoas_l/activation	quad_fem_l/activation	gem_l/activation	peri_l/activation	rect_fem_l/activation	vas_med_l/activation	vas_int_l/activation	vas_lat_l/activation	med_gas_l/activation	lat_gas_l/activation	soleus_l/activation	tib_post_l/activation	flex_dig_l/activation	flex_hal_l/activation	tib_ant_l/activation	per_brev_l/activation	per_long_l/activation	per_tert_l/activation	ext_dig_l/activation	ext_hal_l/activation	ercspn_l/activation	intobl_l/activation	extobl_l/activation	glut_med1_r/activation	glut_med2_r/activation	glut_med3_r/activation	glut_min1_r/activation	glut_min2_r/activation	glut_min3_r/activation	semimem_r/activation	semiten_r/activation	bifemlh_r/activation	bifemsh_r/activation	sar_r/activation	add_long_r/activation	add_brev_r/activation	add_mag1_r/activation	add_mag2_r/activation	add_mag3_r/activation	tfl_r/activation	pect_r/activation	grac_r/activation	glut_max1_r/activation	glut_max2_r/activation	glut_max3_r/activation	iliacus_r/activation	psoas_r/activation	quad_fem_r/activation	gem_r/activation	peri_r/activation	rect_fem_r/activation	vas_med_r/activation	vas_int_r/activation	vas_lat_r/activation	med_gas_r/activation	lat_gas_r/activation	soleus_r/activation	tib_post_r/activation	flex_dig_r/activation	flex_hal_r/activation	tib_ant_r/activation	per_brev_r/activation	per_long_r/activation	per_tert_r/activation	ext_dig_r/activation	ext_hal_r/activation	ercspn_r/activation	intobl_r/activation	extobl_r/activation	
          1.61257264	         -2.92966183	          2.19691338	         -5.36278952	          2.01571579	          0.85853165	          0.00238644	         31.65573228	          3.05911396	         -1.90159198	        -18.11330420	         -1.63675626	          7.14555710	        -14.66778379	         -6.04168193	          7.38588922	          1.35523251	         -2.97658602	          9.67162600	          0.04336252	          1.27508627	         -0.12660587	         20.48975142	         -1.96555110	         -0.55150075	          1.90884801	         -7.45976489	        -13.46485915	         14.09758774	          9.22376551	        -13.45202395	         19.33914873	         10.48416645	         31.91170677	         86.51662706	         86.51662706	          0.05000007	          0.05000001	          0.05895868	          0.05000000	          0.05000001	          0.05000007	          0.05895873	          0.05895874	          0.20886027	          0.05000003	          0.05000007	          0.11140454	          0.16085045	          0.19124764	          0.15930926	          0.11135616	          0.05895876	          0.05000248	          0.05895892	          0.05895984	          0.06952260	          0.10245645	          0.05000000	          0.05000000	          0.17227780	          0.05000008	          0.05000002	          0.05000001	          0.09732228	          0.10013342	          0.08586908	          0.05788130	          0.05000019	          0.05895872	          0.05000000	          0.05000008	          0.05000017	          0.49254965	          0.37420030	          0.21627881	          0.27903878	          0.53834117	          0.26960817	          0.07219130	          0.11056583	          0.11398843	          0.32644729	          0.11398839	          0.08197933	          0.33205778	          0.22127083	          0.11398846	          0.05000008	          0.05000001	          0.05000000	          0.07665294	          0.11398862	          0.05000000	          0.05000000	          0.05000000	          0.05000003	          0.05000002	          0.32756711	          0.05000004	          0.05000002	          0.05000060	          0.05000027	          0.05000008	          0.38634032	          0.63733648	          0.05000001	          0.05000004	          0.05412918	          0.20095389	          0.05000017	          0.05000007	          0.05000008	          0.33192397	          0.44663987	          0.31490407	          0.27488244	          0.29093324	          0.38547307	          0.05000000	          0.05937777	          0.15915087	          0.05000001	          0.05000000	          0.05000001	          0.05000000	          0.05000000	          0.05000000	
          1.62332312	         -2.92508632	          2.29188417	         -5.65613343	          2.03171203	          0.85745921	          0.00218791	         31.07837553	          3.42428760	         -1.70579025	        -17.98301084	         -1.93715055	          6.92195303	        -14.57418371	         -7.97422004	          6.81391061	          0.62879112	         -3.45575780	         10.62472039	          0.05222227	          1.23319270	         -0.10744050	         21.60642283	         -1.77912362	         -0.77212345	          1.98330074	         -8.50199294	        -13.45827507	         14.10417006	          9.06856151	        -13.45989284	         19.38651893	         10.37019245	         33.10867840	         86.51662706	         86.51662706	          0.06311114	          0.05723826	          0.05000000	          0.05895877	          0.05895872	          0.05000005	          0.05000000	          0.05000001	          0.17830235	          0.05000002	          0.05000014	          0.09447685	          0.13640937	          0.23628869	          0.17640839	          0.09913812	          0.05000003	          0.05000024	          0.05000019	          0.05000101	          0.05895871	          0.11612958	          0.05264464	          0.06443831	          0.51783965	          0.13440742	          0.08709893	          0.06952266	          0.18851606	          0.19246725	          0.16629894	          0.05000000	          0.05000000	          0.05000000	          0.05000001	          0.05895875	          0.05000222	          0.54672612	          0.33326855	          0.22629042	          0.44017992	          0.57469628	          0.24698507	          0.06122188	          0.09376543	          0.09666798	          0.27684387	          0.09666794	          0.06952263	          0.28160185	          0.18764889	          0.09666800	          0.05000035	          0.05000004	          0.05000007	          0.06500559	          0.09666815	          0.12111443	          0.06387228	          0.06679559	          0.05000132	          0.06952243	          0.27779354	          0.05890656	          0.05000029	          0.05000020	          0.05000013	          0.05000015	          0.32763620	          0.56808424	          0.05000004	          0.05895823	          0.05895874	          0.17041910	          0.05000026	          0.18689270	          0.16964975	          0.28148837	          0.37877327	          0.26802853	          0.24761479	          0.24672628	          0.32690082	          0.05000000	          0.05035538	          0.15958142	          0.05000000	          0.05000000	          0.05000000	          0.05000000	          0.06952264	          0.05000000	
          1.63407360	         -2.91651544	          2.38451487	         -5.92523570	          2.04800962	          0.85640312	          0.00200003	         30.37129345	          3.73273447	         -1.44431650	        -17.77889612	         -2.23008269	          6.68611037	        -14.99019365	        -10.03770707	          6.19932316	         -0.25300827	         -3.95723715	         11.53595084	         -0.03592126	          1.16465326	         -0.15004646	         22.60292864	         -1.57028805	         -0.99710830	          2.04807918	         -9.57018371	        -13.45702019	         14.11558496	          8.82383825	        -13.46706092	         19.36757204	         10.32894226	         34.27505066	         86.51662706	         86.51662706	          0.26203998	          0.05000000	          0.29044399	          0.05000004	          0.05000001	          0.23164788	          0.07647295	          0.05000004	          0.16175217	          0.05000000	          0.05000003	          0.08197968	          0.22803119	          0.20038483	          0.14960349	          0.13254524	          0.05000003	          0.05895912	          0.12380483	          0.05000000	          0.05000000	          0.09958924	          0.05895871	          0.05464751	          0.43915430	          0.11398432	          0.15520820	          0.05895874	          0.15987119	          0.16322200	          0.14102994	          0.05968576	          0.05895899	          0.05895874	          0.05895873	          0.05000003	          0.05000003	          0.46365148	          0.34763659	          0.19190576	          0.37329492	          0.58213599	          0.20945587	          0.05191926	          0.10179378	          0.08197935	          0.35332537	          0.08197932	          0.05895872	          0.23881267	          0.15913579	          0.08197937	          0.05000018	          0.05000006	          0.05000006	          0.05512804	          0.08197951	          0.14328683	          0.11999079	          0.05895890	          0.05895879	          0.05895874	          0.23558305	          0.08643633	          0.05273730	          0.05000115	          0.05000227	          0.05895866	          0.27785213	          0.54108525	          0.05895870	          0.05000013	          0.05000001	          0.14452405	          0.09617422	          0.15849454	          0.14387165	          0.23871642	          0.32121895	          0.22730179	          0.20998991	          0.20923642	          0.27722849	          0.05000000	          0.05000002	          0.17926314	          0.05000000	          0.05000000	          0.05000000	          0.05586901	          0.05895873	          0.05000038	
          1.64482409	         -2.90559046	          2.47624230	         -6.16252909	          2.06445211	          0.85536769	          0.00180150	         29.53709967	          4.00300126	         -1.17268953	        -17.48086085	         -2.51360923	          6.44504327	        -15.42724666	        -12.24706045	          5.74540967	         -1.28525135	         -4.45339564	         12.38925135	         -0.01889353	          1.08569522	         -0.16205491	         23.41287779	         -1.35492318	         -1.22678619	          2.10381224	        -10.62321417	        -13.46055223	         14.14959215	          8.51133272	        -13.47772546	         19.29480120	         10.33324655	         35.40212093	         86.51662706	         86.51662706	          0.31817129	          0.28816209	          0.36281024	          0.17571504	          0.21144380	          0.19644920	          0.06485295	          0.09225232	          0.13717405	          0.08197935	          0.05001013	          0.06952293	          0.19338202	          0.16993651	          0.12687137	          0.15089732	          0.05000002	          0.05000035	          0.10499280	          0.21981950	          0.16792311	          0.12791462	          0.05000000	          0.05000000	          0.37242513	          0.09666450	          0.13162445	          0.05000001	          0.13557889	          0.14412361	          0.11960057	          0.05061655	          0.05000021	          0.05000000	          0.05000000	          0.05895873	          0.05341711	          0.58842016	          0.42527122	          0.21788231	          0.63493594	          0.63862110	          0.33146247	          0.07683646	          0.08947457	          0.06952265	          0.30641180	          0.06952262	          0.05000000	          0.35535581	          0.13495523	          0.06952267	          0.05000024	          0.05000001	          0.05000000	          0.05000001	          0.06952286	          0.13160607	          0.10175829	          0.05000015	          0.05000009	          0.05000004	          0.25155240	          0.07330257	          0.05000004	          0.05000011	          0.05000006	          0.05000004	          0.23563272	          0.50391348	          0.05000000	          0.05000005	          0.05000003	          0.13441093	          0.08156065	          0.13441150	          0.12511798	          0.20244363	          0.27240997	          0.19276345	          0.17808210	          0.17744311	          0.23510383	          0.05000000	          0.09481872	          0.18427231	          0.05000001	          0.05000004	          0.05000001	          0.07540395	          0.05000000	          0.05000000	
